<svg id="Layer_1" data-name="Layer 1" xmlns="http://www.w3.org/2000/svg" viewBox="0 0 671.83 92.29"><title>Canyon Bicycles logo - Brandlogos.net</title><polygon points="574.22 1.98 648.74 87.72 648.11 87.72 539.58 1.98 517.58 1.98 594.09 91.5 615.92 91.5 572 42.85 571.82 42.85 633.84 92.27 671.83 92.27 594.68 1.98 574.22 1.98"/><path d="M533.7,418.91c8.36,9.51,19.83,20.36,29.29,26.29H535.34a.59.59,0,0,1-.38-.1c-4-3.11-13.07-12.27-22.91-24l-27.28-32.5c-16.13-19.28-12.91-34.91,6.34-34.91,25.23,0,48.43,15.46,67.89,38.71l14.07,16.8c13.34,15.91,17.45,25.73,19.45,36.75H574.45c-1.71-7.5-5.1-14.35-12.6-23.25L541.9,398.88C526.57,380.61,510,372.2,505,371.52c-7.6-1-8.69,3.16-2.13,11Z" transform="translate(-48.09 -353.7)"/><polygon points="416.86 67.26 386.43 1.98 367.53 1.98 390.22 46.67 389.6 46.66 328.96 1.98 302.09 1.98 397.1 71 415.36 92.27 438.33 92.27 416.86 67.26"/><polygon points="248.29 1.98 322.81 87.72 322.18 87.72 213.65 1.98 191.67 1.98 268.15 91.5 289.99 91.5 245.28 42.85 245.89 42.85 307.92 92.27 345.89 92.27 268.77 1.98 248.29 1.98"/><polygon points="107.28 1.98 154.26 91.5 173.82 91.5 138.16 26.18 138.77 26.18 207.62 92.27 232.29 92.27 136.14 1.98 107.28 1.98"/><path d="M146.63,446h19a45.58,45.58,0,0,0-10.7-23.24H134.05c7.5,8.9,10.89,15.74,12.58,23.24" transform="translate(-48.09 -353.7)"/><path d="M64.75,353.82c-19.24,0-22.44,15.61-6.34,34.86l27.26,32.47c9.81,11.71,18.85,20.86,22.87,24a.58.58,0,0,0,.38.12h27.62c-9.46-5.94-20.92-16.77-29.25-26.27l-30.8-36.34c-6.56-7.84-5.47-12,2.14-11,3.84.51,14.37,5.54,25.95,16h23.75c-18.55-20.5-40.18-33.8-63.57-33.8" transform="translate(-48.09 -353.7)"/></svg>