<svg width="31" height="30" viewBox="0 0 31 30" fill="none" xmlns="http://www.w3.org/2000/svg">
<g clip-path="url(#clip0_4042_2)">
<path d="M30.1951 -0.0839844H28.5144H27.2715H24.7047H21.0394H16.9225H13.2557H9.13825H4.46754H1.54393H0.948975V30.3248H4.46754V16.1343H27.2715V30.3248H30.79V-0.0839844H30.1951ZM4.46754 12.3136V2.79348H8.05389L4.46754 12.3136ZM11.8964 13.2567H8.23008L12.1718 2.79355H15.838L11.8964 13.2567ZM19.6797 13.2567H16.0138L19.9555 2.79355H23.6208L19.6797 13.2567ZM27.2715 13.2567H23.7966L25.4871 8.76785L27.2715 4.0313V13.2567Z" fill="black"/>
<path d="M20.01 2.69061L23.6282 2.77646L19.6743 13.3282L18.089 13.3282L15.8965 13.3282L20.01 2.69061Z" fill="#FFBF00"/>
<path d="M11.9985 2.69061L15.8965 2.69061L11.9985 13.3282L10.4132 13.3282L8.22078 13.3282L11.9985 2.69061Z" fill="#FFBF00"/>
<path d="M27.6857 2.69061L27.35 13.3282L25.7647 13.3282L23.5723 13.3282L27.6857 2.69061Z" fill="#FFBF00"/>
<path d="M4.45532 2.75391H8.07355L4.45532 12.3219V2.75391Z" fill="#FFBF00"/>
</g>
<defs>
<clipPath id="clip0_4042_2">
<rect width="30" height="30" fill="white" transform="translate(0.869629)"/>
</clipPath>
</defs>
</svg>
