<svg width="51" height="50" viewBox="0 0 51 50" fill="none" xmlns="http://www.w3.org/2000/svg">
<ellipse cx="25.1142" cy="25" rx="25.1142" ry="25" fill="#FFB144"/>
<path d="M27.9398 13.0018C27.9087 13.0076 27.8776 13.0164 27.8493 13.0252C27.5781 13.0749 27.3606 13.2798 27.2843 13.552C27.208 13.8271 27.2871 14.1197 27.4877 14.3129C27.8493 14.6875 28.3099 15.0621 28.9795 15.1791C29.5248 15.2728 30.5052 15.2494 31.7144 15.2494C31.7427 15.4425 31.7596 15.6269 31.8048 15.9049C31.9009 16.4961 32.0478 17.3331 32.2343 18.2696H19.7802L18.6952 16.022C18.7376 16.0191 18.7885 16.022 18.8309 16.022C20.7125 16.022 21.498 15.4923 21.498 14.9684C21.498 14.5177 21.1279 14.5177 20.5487 14.5938H15.9377C15.141 14.5938 14.9884 14.9743 14.9884 15.6474C14.9884 17.3711 15.9773 16.8004 17.2487 16.3498L18.5144 19.0188L16.8192 22.5072C16.0225 22.1912 15.1664 22.0156 14.2651 22.0156C10.2785 22.0156 7.03223 25.3782 7.03223 29.5075C7.03223 33.6369 10.2785 36.9995 14.2651 36.9995C18.0087 36.9995 21.0911 34.0378 21.4528 30.2567H24.3911C24.538 30.2538 24.6793 30.2041 24.798 30.1163C24.8121 30.1104 24.8291 30.1016 24.8432 30.0928C24.8517 30.0841 24.8573 30.0782 24.8658 30.0694C24.8799 30.0636 24.8969 30.0548 24.911 30.046C24.911 30.0372 24.911 30.0314 24.911 30.0226C24.9195 30.0138 24.9251 30.008 24.9336 29.9992C24.959 29.9699 24.9816 29.9377 25.0014 29.9055L32.7315 20.564C32.8756 21.1961 33.0508 21.8692 33.2288 22.5775C30.5984 23.7013 28.7309 26.3849 28.7309 29.5075C28.7309 33.6369 31.9772 36.9995 35.9637 36.9995C39.9503 36.9995 43.1966 33.6369 43.1966 29.5075C43.1966 25.3782 39.9503 22.0156 35.9637 22.0156C35.4976 22.0156 35.0483 22.0682 34.6076 22.156C34.3081 20.9415 34.0425 19.8031 33.8391 18.8315C33.5622 17.5028 33.3503 16.4258 33.2288 15.6708C33.1666 15.2933 33.144 14.986 33.1158 14.7811C33.1017 14.6787 33.0762 14.5997 33.0706 14.547C33.0649 14.4943 33.0706 14.4124 33.0706 14.5236C33.0706 14.1109 32.7457 13.7744 32.3473 13.7744C30.5391 13.7744 29.6208 13.751 29.2055 13.6807C28.7902 13.6105 28.8891 13.6105 28.5274 13.2359C28.3777 13.0691 28.1601 12.9842 27.9398 13.0018ZM20.5035 19.768H31.511L24.5493 28.1496L20.5035 19.768ZM19.3281 20.7045L23.2158 28.7583H21.4528C21.2296 26.4112 19.961 24.3919 18.1302 23.1862L19.3281 20.7045ZM14.2651 23.514C14.9404 23.514 15.5845 23.6222 16.1863 23.8417L13.6096 29.1798C13.4994 29.4139 13.5136 29.689 13.6492 29.9085C13.782 30.125 14.0136 30.2597 14.2651 30.2567H20.0062C19.6502 33.2184 17.2232 35.5011 14.2651 35.5011C11.0612 35.5011 8.4788 32.8262 8.4788 29.5075C8.4788 26.1888 11.0612 23.514 14.2651 23.514ZM35.9637 23.514C39.1677 23.514 41.75 26.1888 41.75 29.5075C41.75 32.8262 39.1677 35.5011 35.9637 35.5011C32.7598 35.5011 30.1774 32.8262 30.1774 29.5075C30.1774 27.0668 31.5788 24.9889 33.5904 24.0524C34.0566 25.7996 34.6132 27.7077 35.2856 29.7417C35.3337 30.0343 35.5428 30.2684 35.8168 30.3416C36.0937 30.4148 36.3847 30.3153 36.5627 30.0841C36.7407 29.8529 36.7718 29.5368 36.6418 29.2734C35.975 27.2541 35.4241 25.3431 34.9692 23.6076C35.2913 23.5491 35.6247 23.514 35.9637 23.514ZM17.4747 24.5441C18.8337 25.4865 19.7943 26.9936 20.0062 28.7583H15.4404L17.4747 24.5441Z" fill="black"/>
</svg>
