<svg width="220" height="50" viewBox="0 0 220 50" fill="none" xmlns="http://www.w3.org/2000/svg">
<path d="M61.1658 25.8155V23.7035H65.2938C66.1898 23.7035 66.9338 23.4875 67.5258 23.0555C68.1338 22.6235 68.5818 22.0555 68.8698 21.3515C69.1738 20.6475 69.3258 19.8955 69.3258 19.0955C69.3258 17.9435 69.0138 17.0955 68.3898 16.5515C67.7818 16.0075 66.9738 15.7355 65.9658 15.7355H61.1658V13.7195H66.0618C67.2138 13.7195 68.2138 13.9275 69.0618 14.3435C69.9098 14.7595 70.5658 15.3675 71.0298 16.1675C71.4938 16.9675 71.7258 17.9435 71.7258 19.0955C71.7258 20.1675 71.5418 21.1275 71.1738 21.9755C70.8218 22.8075 70.3338 23.5115 69.7098 24.0875C69.1018 24.6475 68.4058 25.0795 67.6218 25.3835C66.8538 25.6715 66.0458 25.8155 65.1978 25.8155H61.1658ZM59.8218 30.9995V13.7195H62.1258V30.9995H59.8218ZM70.0938 30.9995L65.5818 25.1435L67.9818 24.8555L72.7818 30.9035V30.9995H70.0938ZM76.2655 30.9995V13.7195H78.5695V30.9995H76.2655ZM77.6095 30.9995V28.9835H87.4975V30.9995H77.6095ZM77.6095 22.9355V20.9195H85.8655V22.9355H77.6095ZM77.6095 15.7355V13.7195H87.2095V15.7355H77.6095ZM91.6546 30.9995V13.7195H93.5746L99.6706 23.2235H98.7106L104.807 13.7195H106.727V30.9995H104.423V17.4875L104.927 17.6315L100.103 25.0475H98.2786L93.4546 17.6315L93.9586 17.4875V30.9995H91.6546ZM110.982 22.3595C110.982 20.5995 111.302 19.0475 111.942 17.7035C112.598 16.3595 113.526 15.3115 114.726 14.5595C115.942 13.8075 117.382 13.4315 119.046 13.4315C120.71 13.4315 122.142 13.8075 123.342 14.5595C124.558 15.3115 125.486 16.3595 126.126 17.7035C126.782 19.0475 127.11 20.5995 127.11 22.3595C127.11 24.1195 126.782 25.6715 126.126 27.0155C125.486 28.3595 124.558 29.4075 123.342 30.1595C122.142 30.9115 120.71 31.2875 119.046 31.2875C117.366 31.2875 115.926 30.9115 114.726 30.1595C113.526 29.4075 112.598 28.3595 111.942 27.0155C111.302 25.6715 110.982 24.1195 110.982 22.3595ZM113.382 22.3595C113.382 23.8315 113.614 25.0795 114.078 26.1035C114.542 27.1115 115.198 27.8795 116.046 28.4075C116.894 28.9195 117.894 29.1755 119.046 29.1755C120.198 29.1755 121.198 28.9195 122.046 28.4075C122.894 27.8795 123.55 27.1115 124.014 26.1035C124.478 25.0795 124.71 23.8315 124.71 22.3595C124.71 20.8875 124.478 19.6475 124.014 18.6395C123.55 17.6155 122.894 16.8475 122.046 16.3355C121.198 15.8075 120.198 15.5435 119.046 15.5435C117.894 15.5435 116.894 15.8075 116.046 16.3355C115.198 16.8475 114.542 17.6155 114.078 18.6395C113.614 19.6475 113.382 20.8875 113.382 22.3595ZM128.385 13.7195H141.825V15.7355H136.257V30.9995H133.953V15.7355H128.385V13.7195ZM145.017 13.7195H147.321V30.9995H145.017V13.7195ZM151.571 22.3595C151.571 20.5995 151.891 19.0475 152.531 17.7035C153.187 16.3595 154.115 15.3115 155.315 14.5595C156.531 13.8075 157.971 13.4315 159.635 13.4315C161.299 13.4315 162.731 13.8075 163.931 14.5595C165.147 15.3115 166.075 16.3595 166.715 17.7035C167.371 19.0475 167.699 20.5995 167.699 22.3595C167.699 24.1195 167.371 25.6715 166.715 27.0155C166.075 28.3595 165.147 29.4075 163.931 30.1595C162.731 30.9115 161.299 31.2875 159.635 31.2875C157.955 31.2875 156.515 30.9115 155.315 30.1595C154.115 29.4075 153.187 28.3595 152.531 27.0155C151.891 25.6715 151.571 24.1195 151.571 22.3595ZM153.971 22.3595C153.971 23.8315 154.203 25.0795 154.667 26.1035C155.131 27.1115 155.787 27.8795 156.635 28.4075C157.483 28.9195 158.483 29.1755 159.635 29.1755C160.787 29.1755 161.787 28.9195 162.635 28.4075C163.483 27.8795 164.139 27.1115 164.603 26.1035C165.067 25.0795 165.299 23.8315 165.299 22.3595C165.299 20.8875 165.067 19.6475 164.603 18.6395C164.139 17.6155 163.483 16.8475 162.635 16.3355C161.787 15.8075 160.787 15.5435 159.635 15.5435C158.483 15.5435 157.483 15.8075 156.635 16.3355C155.787 16.8475 155.131 17.6155 154.667 18.6395C154.203 19.6475 153.971 20.8875 153.971 22.3595ZM171.951 30.9995V13.7195H173.871L183.807 24.2075V27.4475L173.631 16.7195L174.255 16.4555V30.9995H171.951ZM182.703 30.9995V13.7195H185.007V30.9995H182.703ZM200.303 30.9995L195.119 23.2955L188.591 13.9115V13.7195H191.279L196.463 21.4235L202.991 30.8075V30.9995H200.303ZM188.687 30.9995V30.8075L195.119 21.4235L200.303 13.7195H202.799V13.9115L196.367 23.2955L191.183 30.9995H188.687Z" fill="black"/>
<ellipse cx="25.1142" cy="25" rx="25.1142" ry="25" fill="#FFB144"/>
<path d="M27.9398 13.0018C27.9087 13.0076 27.8776 13.0164 27.8493 13.0252C27.5781 13.0749 27.3606 13.2798 27.2843 13.552C27.208 13.8271 27.2871 14.1197 27.4877 14.3129C27.8493 14.6875 28.3099 15.0621 28.9795 15.1791C29.5248 15.2728 30.5052 15.2494 31.7144 15.2494C31.7427 15.4425 31.7596 15.6269 31.8048 15.9049C31.9009 16.4961 32.0478 17.3331 32.2343 18.2696H19.7802L18.6952 16.022C18.7376 16.0191 18.7885 16.022 18.8309 16.022C20.7125 16.022 21.498 15.4923 21.498 14.9684C21.498 14.5177 21.1279 14.5177 20.5487 14.5938H15.9377C15.141 14.5938 14.9884 14.9743 14.9884 15.6474C14.9884 17.3711 15.9773 16.8004 17.2487 16.3498L18.5144 19.0188L16.8192 22.5072C16.0225 22.1912 15.1664 22.0156 14.2651 22.0156C10.2785 22.0156 7.03223 25.3782 7.03223 29.5075C7.03223 33.6369 10.2785 36.9995 14.2651 36.9995C18.0087 36.9995 21.0911 34.0378 21.4528 30.2567H24.3911C24.538 30.2538 24.6793 30.2041 24.798 30.1163C24.8121 30.1104 24.8291 30.1016 24.8432 30.0928C24.8517 30.0841 24.8573 30.0782 24.8658 30.0694C24.8799 30.0636 24.8969 30.0548 24.911 30.046C24.911 30.0372 24.911 30.0314 24.911 30.0226C24.9195 30.0138 24.9251 30.008 24.9336 29.9992C24.959 29.9699 24.9816 29.9377 25.0014 29.9055L32.7315 20.564C32.8756 21.1961 33.0508 21.8692 33.2288 22.5775C30.5984 23.7013 28.7309 26.3849 28.7309 29.5075C28.7309 33.6369 31.9772 36.9995 35.9637 36.9995C39.9503 36.9995 43.1966 33.6369 43.1966 29.5075C43.1966 25.3782 39.9503 22.0156 35.9637 22.0156C35.4976 22.0156 35.0483 22.0682 34.6076 22.156C34.3081 20.9415 34.0425 19.8031 33.8391 18.8315C33.5622 17.5028 33.3503 16.4258 33.2288 15.6708C33.1666 15.2933 33.144 14.986 33.1158 14.7811C33.1017 14.6787 33.0762 14.5997 33.0706 14.547C33.0649 14.4943 33.0706 14.4124 33.0706 14.5236C33.0706 14.1109 32.7457 13.7744 32.3473 13.7744C30.5391 13.7744 29.6208 13.751 29.2055 13.6807C28.7902 13.6105 28.8891 13.6105 28.5274 13.2359C28.3777 13.0691 28.1601 12.9842 27.9398 13.0018ZM20.5035 19.768H31.511L24.5493 28.1496L20.5035 19.768ZM19.3281 20.7045L23.2158 28.7583H21.4528C21.2296 26.4112 19.961 24.3919 18.1302 23.1862L19.3281 20.7045ZM14.2651 23.514C14.9404 23.514 15.5845 23.6222 16.1863 23.8417L13.6096 29.1798C13.4994 29.4139 13.5136 29.689 13.6492 29.9085C13.782 30.125 14.0136 30.2597 14.2651 30.2567H20.0062C19.6502 33.2184 17.2232 35.5011 14.2651 35.5011C11.0612 35.5011 8.4788 32.8262 8.4788 29.5075C8.4788 26.1888 11.0612 23.514 14.2651 23.514ZM35.9637 23.514C39.1677 23.514 41.75 26.1888 41.75 29.5075C41.75 32.8262 39.1677 35.5011 35.9637 35.5011C32.7598 35.5011 30.1774 32.8262 30.1774 29.5075C30.1774 27.0668 31.5788 24.9889 33.5904 24.0524C34.0566 25.7996 34.6132 27.7077 35.2856 29.7417C35.3337 30.0343 35.5428 30.2684 35.8168 30.3416C36.0937 30.4148 36.3847 30.3153 36.5627 30.0841C36.7407 29.8529 36.7718 29.5368 36.6418 29.2734C35.975 27.2541 35.4241 25.3431 34.9692 23.6076C35.2913 23.5491 35.6247 23.514 35.9637 23.514ZM17.4747 24.5441C18.8337 25.4865 19.7943 26.9936 20.0062 28.7583H15.4404L17.4747 24.5441Z" fill="black"/>
</svg>
