<svg width="27" height="22" viewBox="0 0 27 22" fill="none" xmlns="http://www.w3.org/2000/svg">
<path d="M13.6801 11C13.5676 10.9887 13.4324 10.9887 13.3086 11C10.6284 10.9098 8.5 8.71139 8.5 6.00564C8.5 3.24352 10.7297 1 13.5 1C16.2591 1 18.5 3.24352 18.5 6.00564C18.4888 8.71139 16.3604 10.9098 13.6801 11Z" stroke="black" stroke-width="1.2" stroke-linecap="round" stroke-linejoin="round"/>
<path d="M7.99597 14.2734C5.33468 15.7765 5.33468 18.2259 7.99597 19.7197C11.0202 21.4268 15.9799 21.4268 19.0041 19.7197C21.6653 18.2166 21.6653 15.7672 19.0041 14.2734C15.9908 12.5755 11.0312 12.5755 7.99597 14.2734Z" stroke="black" stroke-width="1.2" stroke-linecap="round" stroke-linejoin="round"/>
</svg>
