<svg width="30" height="30" viewBox="0 0 30 30" fill="none" xmlns="http://www.w3.org/2000/svg">
<path d="M15.2162 14C15.0811 13.9853 14.9189 13.9853 14.7703 14C11.5541 13.8828 9 11.0248 9 7.50733C9 3.91657 11.6757 1 15 1C18.3109 1 21 3.91657 21 7.50733C20.9865 11.0248 18.4325 13.8828 15.2162 14Z" stroke="black" stroke-width="1.2" stroke-linecap="round" stroke-linejoin="round"/>
<path d="M8.39517 17.0693C5.20161 19.5117 5.20161 23.492 8.39517 25.9194C12.0242 28.6935 17.9758 28.6935 21.6049 25.9194C24.7984 23.477 24.7984 19.4967 21.6049 17.0693C17.989 14.3102 12.0374 14.3102 8.39517 17.0693Z" stroke="black" stroke-width="1.2" stroke-linecap="round" stroke-linejoin="round"/>
</svg>
